<?xml version="1.0" encoding="UTF-8"?>
<svg xmlns="http://www.w3.org/2000/svg" width="45" height="45" viewBox="0 0 10 10" version="1.1">
  <style> :root { --icon-color: #304671; } @media (prefers-color-scheme: dark) { :root { --icon-color: #b6c6ee; } } </style>
  <path
    d="m5 1c-2.205 0-4 1.795-4 4 0 2.205 1.795 4 4 4 2.205 0 4-1.795 4-4 0-2.205-1.795-4-4-4zm0 6.25c-1.245 0-2.25-1.005-2.25-2.25 0-1.245 1.005-2.25 2.25-2.25s2.25 1.005 2.25 2.25c0 1.245-1.005 2.25-2.25 2.25z"
    fill="var(--icon-color)" fill-opacity=".30196" stroke-width=".5" />
  <path
    d="m5-5e-8c-2.76 0-5 2.24-5 5 0 2.76 2.24 5 5 5 2.76 0 5-2.24 5-5 0-2.76-2.24-5-5-5zm0 9c-2.205 0-4-1.795-4-4 0-2.205 1.795-4 4-4 2.205 0 4 1.795 4 4 0 2.205-1.795 4-4 4zm0-6.25c-1.245 0-2.25 1.005-2.25 2.25 0 1.245 1.005 2.25 2.25 2.25s2.25-1.005 2.25-2.25c0-1.245-1.005-2.25-2.25-2.25zm0 2.75c-0.275 0-0.5-0.225-0.5-0.5 0-0.275 0.225-0.5 0.5-0.5 0.275 0 0.5 0.225 0.5 0.5 0 0.275-0.225 0.5-0.5 0.5z"
    fill="var(--icon-color)" stroke-width=".5" />
</svg>