<?xml version="1.0" encoding="UTF-8" standalone="no"?>
<svg
   width="45"
   height="45"
   viewBox="0 0 9.9999999 9.9999999"
   version="1.1"
   id="svg2"
   xmlns="http://www.w3.org/2000/svg"
   xmlns:svg="http://www.w3.org/2000/svg">
  <defs
     id="defs2" />
  <g
     transform="matrix(0.49999999,0,0,0.49999999,-0.99999998,-0.99999998)"
     id="g2"
     style="fill:#ffdd55">
    <path
       fill="#FFFFFF"
       fill-opacity="0.3"
       d="m 12,4 c -4.41,0 -8,3.59 -8,8 0,4.41 3.59,8 8,8 4.41,0 8,-3.59 8,-8 0,-4.41 -3.59,-8 -8,-8 z m 0,12.5 C 9.51,16.5 7.5,14.49 7.5,12 7.5,9.51 9.51,7.5 12,7.5 c 2.49,0 4.5,2.01 4.5,4.5 0,2.49 -2.01,4.5 -4.5,4.5 z"
       id="path1"
       style="fill:#304671;fill-opacity:0.301961" />
    <path
       fill="#FFFFFF"
       d="M 12,2 C 6.48,2 2,6.48 2,12 2,17.52 6.48,22 12,22 17.52,22 22,17.52 22,12 22,6.48 17.52,2 12,2 Z m 0,18 C 7.59,20 4,16.41 4,12 4,7.59 7.59,4 12,4 c 4.41,0 8,3.59 8,8 0,4.41 -3.59,8 -8,8 z M 12,7.5 c -2.49,0 -4.5,2.01 -4.5,4.5 0,2.49 2.01,4.5 4.5,4.5 2.49,0 4.5,-2.01 4.5,-4.5 0,-2.49 -2.01,-4.5 -4.5,-4.5 z m 0,5.5 c -0.55,0 -1,-0.45 -1,-1 0,-0.55 0.45,-1 1,-1 0.55,0 1,0.45 1,1 0,0.55 -0.45,1 -1,1 z"
       id="path2"
       style="display:inline;fill:#304671;fill-opacity:1" />
  </g>
</svg>
